<svg width="26" height="38" viewBox="0 0 26 38" fill="none" xmlns="http://www.w3.org/2000/svg">
<path d="M13 3C8.47945 3 4.81482 6.80558 4.81482 11.5C4.81482 16.1944 8.47945 20 13 20C17.5206 20 21.1852 16.1944 21.1852 11.5C21.1852 6.80558 17.5206 3 13 3Z" fill="#E87B00"/>
<path d="M17.8304 23.7816C14.6304 23.2512 11.3696 23.2512 8.16965 23.7816L7.82664 23.8384C3.31774 24.5857 0 28.6245 0 33.3661C0 35.9253 1.99784 38 4.46231 38H21.5377C24.0022 38 26 35.9253 26 33.3661C26 28.6245 22.6823 24.5857 18.1734 23.8384L17.8304 23.7816Z" fill="#E87B00"/>
</svg>
