<svg width="42" height="38" viewBox="0 0 42 38" fill="none" xmlns="http://www.w3.org/2000/svg">
<g id="COCO/Line/Calendar ">
<path id="Vector" d="M6.70823 24.1434L7.43526 23.9593L6.70823 24.1434ZM6.70823 14.8093L7.43526 14.9935L6.70823 14.8093ZM35.2918 14.8093L34.5647 14.9935L35.2918 14.8093ZM35.2918 24.1434L34.5647 23.9593L35.2918 24.1434ZM26.0403 32.71L26.1994 33.4429L26.0403 32.71ZM15.9597 32.71L16.1189 31.977L15.9597 32.71ZM15.9597 6.24276L16.1189 6.97567L15.9597 6.24276ZM26.0403 6.24276L26.1994 5.50984L26.0403 6.24276ZM14.8726 4.75C14.8726 4.33579 14.5369 4 14.1226 4C13.7084 4 13.3726 4.33579 13.3726 4.75H14.8726ZM13.3726 8.7301C13.3726 9.14431 13.7084 9.4801 14.1226 9.4801C14.5369 9.4801 14.8726 9.14431 14.8726 8.7301H13.3726ZM28.6274 4.75C28.6274 4.33579 28.2916 4 27.8774 4C27.4631 4 27.1274 4.33579 27.1274 4.75H28.6274ZM27.1274 8.7301C27.1274 9.14431 27.4631 9.4801 27.8774 9.4801C28.2916 9.4801 28.6274 9.14431 28.6274 8.7301H27.1274ZM7.43526 23.9593C6.68825 21.0104 6.68825 17.9423 7.43526 14.9935L5.98119 14.6251C5.17294 17.8157 5.17294 21.137 5.98119 24.3276L7.43526 23.9593ZM34.5647 14.9935C35.3118 17.9423 35.3118 21.0104 34.5647 23.9593L36.0188 24.3276C36.8271 21.137 36.8271 17.8157 36.0188 14.6251L34.5647 14.9935ZM25.8811 31.977C22.6708 32.6743 19.3292 32.6743 16.1189 31.977L15.8006 33.4429C19.2206 34.1857 22.7794 34.1857 26.1994 33.4429L25.8811 31.977ZM16.1189 6.97567C19.3292 6.27839 22.6708 6.27839 25.8811 6.97567L26.1994 5.50984C22.7794 4.767 19.2206 4.767 15.8006 5.50985L16.1189 6.97567ZM16.1189 31.977C11.7816 31.035 8.43612 27.9102 7.43526 23.9593L5.98119 24.3276C7.13389 28.8779 10.957 32.3908 15.8006 33.4429L16.1189 31.977ZM26.1994 33.4429C31.043 32.3908 34.8661 28.8779 36.0188 24.3276L34.5647 23.9593C33.5639 27.9101 30.2184 31.035 25.8811 31.977L26.1994 33.4429ZM25.8811 6.97567C30.2184 7.91774 33.5639 11.0426 34.5647 14.9935L36.0188 14.6251C34.8661 10.0748 31.043 6.56188 26.1994 5.50984L25.8811 6.97567ZM15.8006 5.50985C10.957 6.56188 7.13389 10.0748 5.98119 14.6251L7.43526 14.9935C8.43612 11.0426 11.7816 7.91774 16.1189 6.97567L15.8006 5.50985ZM7.24528 13.8582H34.7547V12.3582H7.24528V13.8582ZM13.3726 4.75V8.7301H14.8726V4.75H13.3726ZM27.1274 4.75V8.7301H28.6274V4.75H27.1274Z" fill="#666666"/>
<path id="Vector_2" d="M23.5233 22.0461C24.232 21.5901 24.673 20.9061 24.673 19.9798C24.673 18.0561 23.035 17.0586 21.0978 17.0586C19.1605 17.0586 17.5068 18.0561 17.5068 19.9798C17.5068 20.9061 17.9635 21.5901 18.6565 22.0461C17.6958 22.5733 17.1445 23.4426 17.1445 24.4543C17.1445 26.2926 18.6408 27.4326 21.0978 27.4326C23.539 27.4326 25.051 26.2926 25.051 24.4543C25.051 23.4426 24.4998 22.5733 23.5233 22.0461ZM21.0978 18.9111C21.9168 18.9111 22.5153 19.3386 22.5153 20.0796C22.5153 20.8063 21.9168 21.2623 21.0978 21.2623C20.2788 21.2623 19.6803 20.8063 19.6803 20.0796C19.6803 19.3386 20.2788 18.9111 21.0978 18.9111ZM21.0978 25.5801C20.0583 25.5801 19.3023 25.0956 19.3023 24.1978C19.3023 23.3143 20.0583 22.8298 21.0978 22.8298C22.1373 22.8298 22.8933 23.3143 22.8933 24.1978C22.8933 25.0956 22.1373 25.5801 21.0978 25.5801Z" fill="#666666"/>
</g>
</svg>
