<svg width="37" height="38" viewBox="0 0 37 38" fill="none" xmlns="http://www.w3.org/2000/svg">
<g id="COCO/Bold/Copy">
<path id="Vector" fill-rule="evenodd" clip-rule="evenodd" d="M25.0307 26.7653C24.4249 26.9113 23.8128 27.0197 23.1976 27.0905C22.381 29.9695 20.1152 32.191 17.251 32.881C15.2087 33.373 13.0832 33.373 11.0409 32.881C8.0357 32.157 5.68922 29.7471 4.9843 26.6607C4.50523 24.5632 4.50523 22.3803 4.9843 20.2828C5.65615 17.3411 7.81914 15.0141 10.6224 14.1754C10.6914 13.5436 10.7969 12.9149 10.939 12.2928C11.7456 8.76132 14.4304 6.00392 17.869 5.17555C20.2242 4.60815 22.6754 4.60815 25.0307 5.17555C28.4692 6.00392 31.1541 8.76133 31.9606 12.2928C32.5131 14.7117 32.5131 17.2292 31.9606 19.6481C31.1541 23.1796 28.4692 25.937 25.0307 26.7653ZM17.869 26.7653C18.848 27.0012 19.8435 27.139 20.8419 27.1788C20.1039 28.9283 18.5976 30.2451 16.7506 30.6901C15.0374 31.1028 13.2545 31.1028 11.5413 30.6901C9.3463 30.1613 7.63244 28.4011 7.11756 26.1468C6.7157 24.3873 6.7157 22.5562 7.11756 20.7967C7.55081 18.8998 8.83301 17.3527 10.5365 16.5948C10.5694 17.466 10.6712 18.3351 10.8419 19.1934C10.8721 19.3453 10.9045 19.4969 10.939 19.6481C11.7456 23.1796 14.4304 25.937 17.869 26.7653Z" fill="#E87B00"/>
</g>
</svg>
