<svg width="1010" height="247" viewBox="0 0 1010 247" fill="none" xmlns="http://www.w3.org/2000/svg">
<path d="M503.148 2.79126C495.948 6.39126 491.815 12.2579 489.948 21.3246C488.348 28.5246 489.815 38.2579 493.281 43.4579C494.615 45.5913 495.148 50.7913 495.148 62.5246V78.5246H480.481H465.815V94.5246V110.525H480.481H495.148V158.391V206.125L489.015 207.058C478.215 208.525 472.615 207.991 462.081 204.391C441.148 197.458 432.881 192.525 418.348 178.391C411.015 171.058 404.615 165.191 404.215 165.191C403.815 165.191 404.215 167.991 405.281 171.458C406.215 175.058 408.881 184.925 411.281 193.591L415.548 209.325L425.148 215.858C448.215 231.458 473.681 242.391 493.681 245.191C508.481 247.458 543.681 246.258 555.148 243.191C568.748 239.591 584.881 231.458 592.348 224.525C603.281 214.258 609.148 198.791 610.615 175.591C611.148 168.791 611.148 163.458 610.748 163.858C610.348 164.258 607.015 169.058 603.415 174.525C594.881 187.591 580.081 201.858 573.015 203.725C564.215 206.125 553.148 206.925 543.948 205.858L535.148 204.925V157.725V110.525H548.481H561.815V94.5246V78.5246H548.481H535.148V62.7913C535.148 49.1913 535.548 46.1246 538.481 39.1913C542.215 29.9913 542.615 24.7913 539.815 18.1246C533.281 2.5246 517.148 -4.2754 503.148 2.79126ZM523.148 8.5246C528.615 11.3246 533.948 18.9246 534.748 25.0579C535.281 28.9246 534.615 32.2579 531.948 37.8579C528.748 45.0579 528.481 46.7913 528.481 65.3246V85.1913H541.815H555.148V94.5246V103.858H541.815H528.481V157.058V210.391L534.481 211.325C545.015 212.791 572.481 211.191 578.481 208.658C581.415 207.458 588.215 202.125 593.548 196.791C598.748 191.591 603.148 187.991 603.148 188.791C603.148 189.591 601.681 194.525 599.948 199.725C594.748 214.925 587.815 222.791 573.148 229.858C562.215 235.058 545.281 239.325 531.148 240.525C517.015 241.591 492.215 239.191 478.481 235.191C465.681 231.458 443.548 220.658 429.815 211.458C420.881 205.591 420.215 204.258 417.148 190.525L416.081 185.858L421.548 190.791C428.215 196.791 444.481 205.191 458.748 209.991C470.481 213.991 487.948 214.925 496.881 211.991L501.815 210.258V157.058V103.858H487.148H472.481V94.5246V85.1913H487.148H501.815V65.1913C501.815 47.8579 501.415 44.5246 499.148 40.2579C495.015 32.3913 494.481 25.1913 497.548 17.9913C502.081 7.7246 513.548 3.59126 523.148 8.5246Z" fill="#0C0B0B"/>
<path d="M505.681 15.9917C494.081 28.3917 511.281 46.1251 524.214 35.1917C534.214 26.7917 528.614 11.8584 515.414 11.8584C510.614 11.8584 508.881 12.5251 505.681 15.9917ZM520.214 20.1251C521.148 21.0584 521.814 23.3251 521.814 25.1917C521.814 29.3251 519.548 31.8584 515.948 31.8584C512.614 31.8584 508.481 28.1251 508.481 25.0584C508.481 19.7251 516.481 16.3917 520.214 20.1251Z" fill="black"/>
<path d="M33.1478 45.0584C27.0144 46.6584 20.2144 50.1251 14.8811 54.5251C-1.25223 67.8584 -0.852233 97.7251 15.6811 109.058C21.9478 113.458 29.5478 115.858 48.7478 119.858C70.4811 124.258 76.4811 128.792 76.4811 140.925C76.4811 152.792 67.9478 160.658 53.4144 162.125C39.2811 163.592 25.9478 156.658 21.8144 145.858C21.0144 143.592 20.0811 137.725 19.6811 132.658C19.0144 120.525 18.4811 119.058 13.8144 117.458C8.8811 115.725 2.8811 117.325 1.14777 120.792C0.214433 122.525 -0.185567 133.325 0.0811 149.325C0.4811 178.392 1.01443 179.858 9.81443 179.858C14.7478 179.858 19.1478 176.792 19.1478 173.325C19.1478 172.125 19.9478 171.858 21.5478 172.525C38.2144 179.592 51.0144 181.458 63.2811 178.525C85.0144 173.458 98.0811 158.392 98.0811 138.525C98.0811 128.125 95.8144 122.125 89.2811 114.792C83.0144 107.858 75.6811 104.925 54.4811 100.525C36.2144 96.6584 30.0811 93.9917 27.2811 88.6584C24.7478 84.1251 25.0144 75.9917 27.6811 70.6584C32.4811 61.5917 50.0811 58.2584 61.8144 64.1251C70.3478 68.5251 72.8811 73.7251 72.7478 85.8584C72.4811 97.8584 74.6144 101.325 82.3478 101.592C91.5478 101.858 92.2144 99.5917 92.2144 73.0584C92.2144 52.5251 91.9478 49.9917 89.6811 47.7251C86.3478 44.3917 80.7478 44.5251 77.0144 47.9917L74.0811 50.6584L68.3478 47.7251C63.6811 45.3251 59.9478 44.6584 49.8144 44.3917C42.8811 44.1251 35.4144 44.3917 33.1478 45.0584Z" fill="#E87B00"/>
<path d="M209.281 49.3243C205.148 52.6576 204.748 57.4576 208.481 61.1909C210.615 63.3243 212.881 63.8576 219.148 63.8576C225.548 63.8576 227.281 64.3909 228.481 66.3909C230.215 69.7243 230.348 154.391 228.481 157.191C227.681 158.658 224.881 159.191 219.015 159.191C212.081 159.324 210.481 159.724 208.348 162.391C205.148 166.258 205.148 169.458 208.215 173.191C210.881 176.524 214.081 176.791 233.815 175.191C241.815 174.524 250.081 174.791 256.081 175.724C270.081 177.858 275.148 175.591 275.148 167.058C275.148 161.191 272.481 159.458 263.281 159.724C252.215 159.991 251.948 159.324 251.415 136.258L250.881 117.191H277.681H304.481V134.791C304.481 157.991 303.815 159.191 292.615 159.191C285.948 159.324 283.815 159.858 282.348 161.858C279.681 165.458 280.081 171.058 283.281 173.858C286.215 176.658 288.481 176.791 309.281 175.191C318.348 174.524 325.548 174.658 331.281 175.724C340.081 177.458 346.481 176.391 348.748 172.791C350.481 170.124 349.948 162.924 347.815 161.191C346.748 160.391 342.215 159.591 337.548 159.458C330.081 159.191 329.015 158.791 327.548 155.858C325.148 151.058 325.148 72.6576 327.548 67.8576C329.015 64.9243 330.215 64.3909 338.215 63.8576C347.948 63.1909 349.815 61.8576 349.815 55.7243C349.815 48.2576 343.281 46.1243 327.281 48.1243C318.615 49.3243 312.615 49.1909 302.348 47.9909C285.281 45.8576 280.615 47.5909 280.481 55.9909C280.481 62.3909 283.281 64.5243 292.348 64.2576C303.681 63.8576 304.481 65.3243 304.481 84.7909V99.8576H277.681H250.748L251.415 83.8576C251.815 73.8576 252.748 67.1909 253.815 65.8576C254.881 64.5243 257.948 63.8576 263.281 63.8576C272.748 63.8576 275.415 61.7243 274.881 54.7909C274.215 46.7909 270.615 45.7243 252.348 47.7243C240.881 49.0576 235.015 49.0576 228.481 47.9909C216.215 45.9909 213.281 46.1243 209.281 49.3243Z" fill="#E87B00"/>
<path d="M679.548 49.5916C675.814 52.5249 675.548 58.5249 678.881 61.5916C680.614 63.1916 683.814 63.8583 689.548 63.8583C696.214 63.8583 697.948 64.2583 699.148 66.3916C699.948 68.1249 700.481 85.0583 700.481 112.258C700.481 162.125 701.014 160.125 688.481 159.725C682.481 159.458 681.014 159.858 678.881 162.392C675.814 166.258 675.814 169.458 678.881 173.192C681.548 176.525 684.881 176.792 705.148 175.192C714.081 174.525 721.681 174.658 727.548 175.725C738.348 177.592 745.681 175.458 745.948 170.258C746.481 161.458 744.214 159.458 734.348 159.725C730.214 159.725 725.948 159.192 725.014 158.392C723.548 157.192 723.148 152.525 723.148 139.858V122.792L742.214 122.125C771.014 121.192 782.481 116.125 790.214 101.192C793.681 94.5249 793.948 92.7916 793.548 83.0583C793.014 73.5916 792.481 71.3249 788.748 65.4583C784.214 58.5249 778.081 53.5916 769.148 49.5916C764.481 47.5916 759.014 47.3249 723.281 47.1916C685.948 47.1916 682.348 47.3249 679.548 49.5916ZM763.014 67.1916C775.548 74.6583 775.414 95.0583 762.614 101.725C758.081 103.992 754.748 104.392 740.614 104.392L723.814 104.525L723.414 85.4583C723.014 62.6583 721.948 63.7249 743.814 64.2583C755.681 64.5249 759.281 65.0583 763.014 67.1916Z" fill="#E87B00"/>
<path d="M895.548 49.5916C891.814 52.5249 891.548 58.5249 894.881 61.5916C896.614 63.1916 899.814 63.8583 905.548 63.8583C912.214 63.8583 913.948 64.2583 915.148 66.3916C915.948 68.1249 916.481 85.0583 916.481 112.258C916.481 162.125 917.014 160.125 904.481 159.725C898.481 159.458 897.014 159.858 894.881 162.392C891.814 166.258 891.814 169.458 894.881 173.192C897.548 176.525 900.881 176.792 921.148 175.192C930.081 174.525 937.681 174.658 943.548 175.725C954.348 177.592 961.681 175.458 961.948 170.258C962.481 161.458 960.214 159.458 950.348 159.725C946.214 159.725 941.948 159.192 941.014 158.392C939.548 157.192 939.148 152.525 939.148 139.858V122.792L958.214 122.125C987.014 121.192 998.481 116.125 1006.21 101.192C1009.68 94.5249 1009.95 92.7916 1009.55 83.0583C1009.01 73.5916 1008.48 71.3249 1004.75 65.4583C1000.21 58.5249 994.081 53.5916 985.148 49.5916C980.481 47.5916 975.014 47.3249 939.281 47.1916C901.948 47.1916 898.348 47.3249 895.548 49.5916ZM979.014 67.1916C991.548 74.6583 991.414 95.0583 978.614 101.725C974.081 103.992 970.748 104.392 956.614 104.392L939.814 104.525L939.414 85.4583C939.014 62.6583 937.948 63.7249 959.814 64.2583C971.681 64.5249 975.281 65.0583 979.014 67.1916Z" fill="#E87B00"/>
</svg>
