<svg width="207" height="247" viewBox="0 0 207 247" fill="none" xmlns="http://www.w3.org/2000/svg">
<path d="M101.836 16.1333C90.2361 28.5333 107.436 46.2667 120.369 35.3333C130.369 26.9333 124.769 12 111.569 12C106.769 12 105.036 12.6667 101.836 16.1333ZM116.369 20.2667C117.303 21.2 117.969 23.4667 117.969 25.3333C117.969 29.4667 115.703 32 112.103 32C108.769 32 104.636 28.2667 104.636 25.2C104.636 19.8667 112.636 16.5333 116.369 20.2667Z" fill="#E87B00"/>
<path d="M99.0855 2.79126C91.8855 6.39126 87.7522 12.2579 85.8855 21.3246C84.2855 28.5246 85.7522 38.2579 89.2188 43.4579C90.5522 45.5913 91.0855 50.7913 91.0855 62.5246V78.5246H76.4188H61.7522V94.5246V110.525H76.4188H91.0855V158.391V206.125L84.9522 207.058C74.1522 208.525 68.5522 207.991 58.0188 204.391C37.0855 197.458 28.8188 192.525 14.2855 178.391C6.95215 171.058 0.552151 165.191 0.152151 165.191C-0.247849 165.191 0.152151 167.991 1.21882 171.458C2.15215 175.058 4.81882 184.925 7.21882 193.591L11.4855 209.325L21.0855 215.858C44.1522 231.458 69.6188 242.391 89.6188 245.191C104.419 247.458 139.619 246.258 151.085 243.191C164.685 239.591 180.819 231.458 188.285 224.525C199.219 214.258 205.085 198.791 206.552 175.591C207.085 168.791 207.085 163.458 206.685 163.858C206.285 164.258 202.952 169.058 199.352 174.525C190.819 187.591 176.019 201.858 168.952 203.725C160.152 206.125 149.085 206.925 139.885 205.858L131.085 204.925V157.725V110.525H144.419H157.752V94.5246V78.5246H144.419H131.085V62.7913C131.085 49.1913 131.485 46.1246 134.419 39.1913C138.152 29.9913 138.552 24.7913 135.752 18.1246C129.219 2.5246 113.085 -4.2754 99.0855 2.79126ZM119.085 8.5246C124.552 11.3246 129.885 18.9246 130.685 25.0579C131.219 28.9246 130.552 32.2579 127.885 37.8579C124.685 45.0579 124.419 46.7913 124.419 65.3246V85.1913H137.752H151.085V94.5246V103.858H137.752H124.419V157.058V210.391L130.419 211.325C140.952 212.791 168.419 211.191 174.419 208.658C177.352 207.458 184.152 202.125 189.485 196.791C194.685 191.591 199.085 187.991 199.085 188.791C199.085 189.591 197.619 194.525 195.885 199.725C190.685 214.925 183.752 222.791 169.085 229.858C158.152 235.058 141.219 239.325 127.085 240.525C112.952 241.591 88.1522 239.191 74.4188 235.191C61.6188 231.458 39.4855 220.658 25.7522 211.458C16.8188 205.591 16.1522 204.258 13.0855 190.525L12.0188 185.858L17.4855 190.791C24.1522 196.791 40.4188 205.191 54.6855 209.991C66.4188 213.991 83.8855 214.925 92.8188 211.991L97.7522 210.258V157.058V103.858H83.0855H68.4188V94.5246V85.1913H83.0855H97.7522V65.1913C97.7522 47.8579 97.3522 44.5246 95.0855 40.2579C90.9522 32.3913 90.4188 25.1913 93.4855 17.9913C98.0188 7.7246 109.485 3.59126 119.085 8.5246Z" fill="#E87B00"/>
</svg>
