<svg width="35" height="33" viewBox="0 0 35 33" fill="none" xmlns="http://www.w3.org/2000/svg">
<g id="COCO/Line/Message-5">
<path id="Vector" d="M6.27379 8.93805L14.7033 14.6163C16.3761 15.7431 18.6233 15.7431 20.2961 14.6163L28.7256 8.93805M4.20754 20.833C3.45816 17.9876 3.45816 15.0125 4.20754 12.167C5.1885 8.44227 8.32095 5.56234 12.2942 4.73223L12.9561 4.59394C15.9489 3.96869 19.0505 3.96869 22.0432 4.59394L22.7051 4.73222C26.6784 5.56234 29.8109 8.44228 30.7918 12.167C31.5412 15.0125 31.5412 17.9875 30.7918 20.833C29.8109 24.5577 26.6784 27.4377 22.7051 28.2678L22.0432 28.4061C19.0505 29.0313 15.9489 29.0313 12.9561 28.4061L12.2942 28.2678C8.32094 27.4377 5.1885 24.5577 4.20754 20.833Z" stroke="#666666" stroke-width="1.5" stroke-linecap="round"/>
</g>
</svg>
