<?xml version="1.0" standalone="no"?>
<!DOCTYPE svg PUBLIC "-//W3C//DTD SVG 20010904//EN"
 "http://www.w3.org/TR/2001/REC-SVG-20010904/DTD/svg10.dtd">
<svg version="1.0" xmlns="http://www.w3.org/2000/svg"
 width="36.000000pt" height="25.000000pt" viewBox="0 0 36.000000 25.000000"
 preserveAspectRatio="xMidYMid meet">

<g transform="translate(0.000000,25.000000) scale(0.100000,-0.100000)"
fill="#000000" stroke="none">
<path d="M133 219 c-42 -19 -43 -21 -43 -70 0 -61 21 -104 60 -124 27 -14 33
-14 60 0 39 20 60 63 60 124 0 50 0 50 -46 71 -26 11 -47 20 -48 19 0 0 -20
-9 -43 -20z m107 -67 c0 -4 -16 -23 -35 -42 l-35 -34 -22 22 c-24 24 -18 43 7
22 14 -11 20 -9 43 13 27 27 42 34 42 19z"/>
</g>
</svg>
