<?xml version="1.0" standalone="no"?>
<!DOCTYPE svg PUBLIC "-//W3C//DTD SVG 20010904//EN"
 "http://www.w3.org/TR/2001/REC-SVG-20010904/DTD/svg10.dtd">
<svg version="1.0" xmlns="http://www.w3.org/2000/svg" width="150" height="50" viewBox="0 0 982 324" preserveAspectRatio="xMidYMid meet">

<g transform="translate(0,324) scale(0.1,-0.1)" fill="#000000" stroke="none">

<path d="M4770 2498 c-54 -27 -85 -71 -99 -139 -12 -54 -1 -127 25 -166 10
-16 14 -55 14 -143 l0 -120 -110 0 -110 0 0 -120 0 -120 110 0 110 0 0 -359 0
-358 -46 -7 c-81 -11 -123 -7 -202 20 -157 52 -219 89 -328 195 -55 55 -103
99 -106 99 -3 0 0 -21 8 -47 7 -27 27 -101 45 -166 l32 -118 72 -49 c173 -117
364 -199 514 -220 111 -17 375 -8 461 15 102 27 223 88 279 140 82 77 126 193
137 367 4 51 4 91 1 88 -3 -3 -28 -39 -55 -80 -64 -98 -175 -205 -228 -219
-66 -18 -149 -24 -218 -16 l-66 7 0 354 0 354 100 0 100 0 0 120 0 120 -100 0
-100 0 0 118 c0 102 3 125 25 177 28 69 31 108 10 158 -49 117 -170 168 -275
115z m150 -43 c41 -21 81 -78 87 -124 4 -29 -1 -54 -21 -96 -24 -54 -26 -67
-26 -206 l0 -149 100 0 100 0 0 -70 0 -70 -100 0 -100 0 0 -399 0 -400 45 -7
c79 -11 285 1 330 20 22 9 73 49 113 89 39 39 72 66 72 60 0 -6 -11 -43 -24
-82 -39 -114 -91 -173 -201 -226 -82 -39 -209 -71 -315 -80 -106 -8 -292 10
-395 40 -96 28 -262 109 -365 178 -67 44 -72 54 -95 157 l-8 35 41 -37 c50
-45 172 -108 279 -144 88 -30 219 -37 286 -15 l37 13 0 399 0 399 -110 0 -110
0 0 70 0 70 110 0 110 0 0 150 c0 130 -3 155 -20 187 -31 59 -35 113 -12 167
34 77 120 108 192 71z"/>
<path d="M4789 2399 c-87 -93 42 -226 139 -144 75 63 33 175 -66 175 -36 0
-49 -5 -73 -31z m109 -31 c7 -7 12 -24 12 -38 0 -31 -17 -50 -44 -50 -25 0
-56 28 -56 51 0 40 60 65 88 37z"/>
<path d="M1245 2181 c-46 -12 -97 -38 -137 -71 -121 -100 -118 -324 6 -409 47
-33 104 -51 248 -81 163 -33 208 -67 208 -158 0 -89 -64 -148 -173 -159 -106
-11 -206 41 -237 122 -6 17 -13 61 -16 99 -5 91 -9 102 -44 114 -37 13 -82 1
-95 -25 -7 -13 -10 -94 -8 -214 3 -218 7 -229 73 -229 37 0 70 23 70 49 0 9 6
11 18 6 125 -53 221 -67 313 -45 163 38 261 151 261 300 0 78 -17 123 -66 178
-47 52 -102 74 -261 107 -137 29 -183 49 -204 89 -19 34 -17 95 3 135 36 68
168 93 256 49 64 -33 83 -72 82 -163 -2 -90 14 -116 72 -118 69 -2 74 15 74
214 0 154 -2 173 -19 190 -25 25 -67 24 -95 -2 l-22 -20 -43 22 c-35 18 -63
23 -139 25 -52 2 -108 0 -125 -5z"/>
<path d="M2566 2149 c-31 -25 -34 -61 -6 -89 16 -16 33 -20 80 -20 48 0 61 -4
70 -19 13 -25 14 -660 0 -681 -6 -11 -27 -15 -71 -15 -52 -1 -64 -4 -80 -24
-24 -29 -24 -53 -1 -81 20 -25 44 -27 192 -15 60 5 122 3 167 -4 105 -16 143
1 143 65 0 44 -20 57 -89 55 -83 -2 -85 3 -89 176 l-4 143 201 0 201 0 0 -132
c0 -174 -5 -183 -89 -183 -50 -1 -66 -5 -77 -20 -20 -27 -17 -69 7 -90 22 -21
39 -22 195 -10 68 5 122 4 165 -4 66 -13 114 -5 131 22 13 20 9 74 -7 87 -8 6
-42 12 -77 13 -56 2 -64 5 -75 27 -18 36 -18 624 0 660 11 22 20 26 80 30 73
5 87 15 87 61 0 56 -49 72 -169 57 -65 -9 -110 -8 -187 1 -128 16 -163 3 -164
-60 0 -48 21 -64 89 -62 85 3 91 -8 91 -154 l0 -113 -201 0 -202 0 5 120 c3
75 10 125 18 135 8 10 31 15 71 15 71 0 91 16 87 68 -5 60 -32 68 -169 53 -86
-10 -130 -10 -179 -2 -92 15 -114 14 -144 -10z"/>
<path d="M6093 2147 c-28 -22 -30 -67 -5 -90 13 -12 37 -17 80 -17 50 0 63 -3
72 -19 6 -13 10 -140 10 -344 0 -374 4 -359 -90 -356 -45 2 -56 -1 -72 -20
-23 -29 -23 -53 0 -81 20 -25 45 -27 197 -15 67 5 124 4 168 -4 81 -14 136 2
138 41 4 66 -13 81 -87 79 -31 0 -63 4 -70 10 -11 9 -14 44 -14 139 l0 128
143 5 c216 7 302 45 360 157 26 50 28 63 25 136 -4 71 -8 88 -36 132 -34 52
-80 89 -147 119 -35 15 -76 17 -344 18 -280 0 -307 -1 -328 -18z m626 -132
c94 -56 93 -209 -3 -259 -34 -17 -59 -20 -165 -20 l-126 -1 -3 143 c-3 171
-11 163 153 159 89 -2 116 -6 144 -22z"/>
<path d="M7713 2147 c-28 -22 -30 -67 -5 -90 13 -12 37 -17 80 -17 50 0 63 -3
72 -19 6 -13 10 -140 10 -344 0 -374 4 -359 -90 -356 -45 2 -56 -1 -72 -20
-23 -29 -23 -53 0 -81 20 -25 45 -27 197 -15 67 5 124 4 168 -4 81 -14 136 2
138 41 4 66 -13 81 -87 79 -31 0 -63 4 -70 10 -11 9 -14 44 -14 139 l0 128
143 5 c216 7 302 45 360 157 26 50 28 63 25 136 -4 71 -8 88 -36 132 -34 52
-80 89 -147 119 -35 15 -76 17 -344 18 -280 0 -307 -1 -328 -18z m626 -132
c94 -56 93 -209 -3 -259 -34 -17 -59 -20 -165 -20 l-126 -1 -3 143 c-3 171
-11 163 153 159 89 -2 116 -6 144 -22z"/>
</g>
</svg>
