<svg width="30" height="30" viewBox="0 0 30 30" fill="none" xmlns="http://www.w3.org/2000/svg">
<g id="COCO/Line/Setting">
<path id="Vector" d="M24.22 24.3052H28M3.52 14.5L1 14.5661M3.52 14.5C3.52 16.4882 5.13177 18.1 7.12 18.1C9.10822 18.1 10.72 16.4882 10.72 14.5C10.72 12.5118 9.10822 10.9 7.12 10.9C5.13177 10.9 3.52 12.5118 3.52 14.5ZM11.7535 14.5662H28M15.7014 4.82686L1 4.82686M28 4.82685H24.22M1 24.3052H15.7014M23.32 24.4C23.32 26.3882 21.7082 28 19.72 28C17.7318 28 16.12 26.3882 16.12 24.4C16.12 22.4118 17.7318 20.8 19.72 20.8C21.7082 20.8 23.32 22.4118 23.32 24.4ZM23.32 4.6C23.32 6.58823 21.7082 8.2 19.72 8.2C17.7318 8.2 16.12 6.58823 16.12 4.6C16.12 2.61177 17.7318 1 19.72 1C21.7082 1 23.32 2.61177 23.32 4.6Z" stroke="#666666" stroke-width="1.5" stroke-linecap="round"/>
</g>
</svg>
