<svg width="26" height="38" viewBox="0 0 26 38" fill="none" xmlns="http://www.w3.org/2000/svg">
<g id="COCO/Line/User">
<g id="Vector">
<path d="M1 30.0623C1 26.3086 3.9097 23.1113 7.86407 22.5197L8.22026 22.4664C11.3867 21.9927 14.6133 21.9927 17.7797 22.4664L18.1359 22.5197C22.0903 23.1113 25 26.3086 25 30.0623C25 31.6847 23.5969 33 21.8661 33H4.13393C2.40311 33 1 31.6847 1 30.0623Z" stroke="#666666" stroke-width="1.5"/>
<path d="M20 11.125C20 14.5077 16.866 17.25 13 17.25C9.13404 17.25 6.00003 14.5077 6.00003 11.125C6.00003 7.74226 9.13404 5 13 5C16.866 5 20 7.74226 20 11.125Z" stroke="#666666" stroke-width="1.5"/>
</g>
</g>
</svg>
