<svg width="22" height="22" viewBox="0 0 22 22" fill="none" xmlns="http://www.w3.org/2000/svg">
<g id="&#240;&#159;&#166;&#134; icon &#34;thumbs down&#34;">
<path id="Vector" d="M15.9194 1.00036H18.6324C19.2075 0.990353 19.7663 1.18849 20.2028 1.55717C20.6392 1.92585 20.9229 2.43939 21 3.00033V10.0002C20.9229 10.5611 20.6392 11.0747 20.2028 11.4434C19.7663 11.812 19.2075 12.0102 18.6324 12.0002H15.9194M8.80652 14.0001V18.0001C8.80652 18.7957 9.12768 19.5587 9.69936 20.1213C10.271 20.6839 11.0464 21 11.8549 21L15.9194 12.0002V1.00036H4.45751C3.9674 0.994909 3.49181 1.16395 3.11836 1.47635C2.7449 1.78874 2.49875 2.22343 2.42526 2.70033L1.02301 11.7002C0.978804 11.9868 0.998449 12.2795 1.08059 12.5579C1.16272 12.8363 1.30539 13.0938 1.4987 13.3126C1.69201 13.5314 1.93135 13.7062 2.20012 13.8249C2.46889 13.9436 2.76068 14.0034 3.05526 14.0001H8.80652Z" stroke="#880B03" stroke-linecap="round" stroke-linejoin="round"/>
</g>
</svg>
