<svg width="22" height="22" viewBox="0 0 22 22" fill="none" xmlns="http://www.w3.org/2000/svg">
<g id="&#240;&#159;&#166;&#134; icon &#34;thumbs up&#34;">
<path id="Vector" d="M6.08062 20.9999H3.03225C2.49326 20.9999 1.97635 20.7892 1.59523 20.4141C1.21411 20.039 1 19.5303 1 18.9999V11.9999C1 11.4695 1.21411 10.9608 1.59523 10.5857C1.97635 10.2107 2.49326 9.99994 3.03225 9.99994H6.08062M13.1935 7.99996V3.99998C13.1935 3.20434 12.8723 2.44128 12.3006 1.87867C11.729 1.31607 10.9536 1 10.1451 1L6.08062 9.99994V20.9999H17.5425C18.0326 21.0053 18.5082 20.8363 18.8816 20.5239C19.2551 20.2115 19.5012 19.7768 19.5747 19.2999L20.977 10.2999C21.0212 10.0133 21.0016 9.72063 20.9194 9.4422C20.8373 9.16377 20.6946 8.90624 20.5013 8.68747C20.308 8.46869 20.0687 8.29389 19.7999 8.17517C19.5311 8.05646 19.2393 7.99667 18.9447 7.99996H13.1935Z" stroke="#038809" stroke-linecap="round" stroke-linejoin="round"/>
</g>
</svg>
