<?xml version="1.0" standalone="no"?>
<!DOCTYPE svg PUBLIC "-//W3C//DTD SVG 20010904//EN"
 "http://www.w3.org/TR/2001/REC-SVG-20010904/DTD/svg10.dtd">
<svg version="1.0" xmlns="http://www.w3.org/2000/svg"
 width="278.000000pt" height="116.000000pt" viewBox="0 0 278.000000 116.000000"
 preserveAspectRatio="xMidYMid meet">

<g transform="translate(0.000000,116.000000) scale(0.100000,-0.100000)"
fill="#000000" stroke="none">
<path d="M1430 795 c-8 -10 -10 -33 -5 -75 l7 -60 -31 0 c-28 0 -31 -3 -31
-30 0 -27 3 -30 30 -30 l30 0 0 -90 c0 -73 -3 -92 -16 -97 -25 -9 -91 15 -129
48 l-34 30 12 -43 c11 -39 18 -46 76 -76 54 -27 75 -32 133 -32 87 0 143 26
164 75 8 19 14 43 14 55 0 17 -5 14 -33 -16 -27 -29 -41 -37 -73 -38 l-39 -1
-3 93 -3 92 26 0 c21 0 25 5 25 30 0 26 -4 30 -26 30 -25 0 -26 2 -21 38 3 20
8 45 12 54 8 20 -27 58 -54 58 -10 0 -24 -7 -31 -15z m59 -9 c7 -8 9 -35 5
-75 -7 -61 -7 -61 20 -61 19 0 26 -5 26 -20 0 -15 -7 -20 -25 -20 l-26 0 3
-102 3 -103 47 1 c31 0 54 6 68 19 24 22 26 9 4 -24 -37 -53 -151 -67 -247
-31 -51 19 -96 54 -85 65 2 3 24 -4 47 -16 23 -11 57 -19 74 -17 l32 3 3 103
3 102 -31 0 c-42 0 -38 33 4 38 l29 4 -7 60 c-6 61 3 88 29 88 7 0 18 -6 24
-14z"/>
<path d="M1444 776 c-8 -21 3 -36 27 -36 15 0 20 6 17 22 -4 27 -35 37 -44 14z
m36 -17 c0 -5 -7 -9 -15 -9 -15 0 -20 12 -9 23 8 8 24 -1 24 -14z"/>
</g>
</svg>
