<svg width="42" height="38" viewBox="0 0 42 38" fill="none" xmlns="http://www.w3.org/2000/svg">
<path fill-rule="evenodd" clip-rule="evenodd" d="M14.6713 4.75C15.3266 4.75 15.8579 5.24325 15.8579 5.85171V6.20935C15.9353 6.19106 16.0129 6.17343 16.0908 6.15646C19.3198 5.45325 22.6802 5.45325 25.9092 6.15646C25.9871 6.17343 26.0647 6.19106 26.1421 6.20935V5.85171C26.1421 5.24325 26.6734 4.75 27.3287 4.75C27.9841 4.75 28.5154 5.24325 28.5154 5.85171V7.01259C31.3188 8.26996 33.5354 10.4554 34.7134 13.1493C34.9571 13.7064 35.1562 14.2852 35.3069 14.8817C36.0644 17.8796 36.0644 20.9995 35.3069 23.9974C34.2131 28.3267 30.5722 31.7071 25.9092 32.7226C22.6802 33.4258 19.3198 33.4258 16.0908 32.7226C11.4278 31.7071 7.78686 28.3267 6.69306 23.9974C5.93565 20.9995 5.93565 17.8796 6.69306 14.8817C6.84377 14.2852 7.04293 13.7064 7.28657 13.1493C8.46464 10.4554 10.6812 8.26997 13.4846 7.01259V5.85171C13.4846 5.24325 14.0159 4.75 14.6713 4.75ZM13.4847 9.53017C12.2131 10.2796 11.134 11.2815 10.3268 12.462H31.6732C30.866 11.2815 29.7868 10.2796 28.5153 9.53016C28.5118 10.1358 27.9819 10.6258 27.3287 10.6258C26.6734 10.6258 26.1421 10.1326 26.1421 9.5241V8.50041C25.888 8.42519 25.6296 8.35881 25.3672 8.30166C22.4947 7.67609 19.5053 7.67609 16.6328 8.30166C16.3704 8.35881 16.112 8.42519 15.8579 8.50042V9.5241C15.8579 10.1326 15.3266 10.6258 14.6713 10.6258C14.0181 10.6258 13.4882 10.1358 13.4847 9.53017ZM24.321 20.3488C24.321 21.2081 23.9222 21.8427 23.2815 22.2658C24.1643 22.7549 24.6627 23.5614 24.6627 24.5C24.6627 26.2055 23.2957 27.2631 21.0886 27.2631C18.8672 27.2631 17.5144 26.2055 17.5144 24.5C17.5144 23.5614 18.0128 22.7549 18.8814 22.2658C18.2549 21.8427 17.8419 21.2081 17.8419 20.3488C17.8419 18.564 19.3371 17.6386 21.0886 17.6386C22.84 17.6386 24.321 18.564 24.321 20.3488ZM22.3701 20.4413C22.3701 19.7539 21.829 19.3572 21.0886 19.3572C20.3481 19.3572 19.807 19.7539 19.807 20.4413C19.807 21.1156 20.3481 21.5386 21.0886 21.5386C21.829 21.5386 22.3701 21.1156 22.3701 20.4413ZM19.4652 24.2621C19.4652 25.095 20.1487 25.5445 21.0886 25.5445C22.0284 25.5445 22.7119 25.095 22.7119 24.2621C22.7119 23.4424 22.0284 22.9929 21.0886 22.9929C20.1487 22.9929 19.4652 23.4424 19.4652 24.2621Z" fill="#E87B00"/>
</svg>
