<svg width="37" height="38" viewBox="0 0 37 38" fill="none" xmlns="http://www.w3.org/2000/svg">
<path d="M11.4489 19.4247C10.891 16.9819 10.891 14.4396 11.4489 11.9968C12.2214 8.61427 14.793 5.97318 18.0865 5.17975C20.465 4.60675 22.9404 4.60675 25.3189 5.17975C28.6124 5.97318 31.184 8.61427 31.9566 11.9968C32.5145 14.4396 32.5145 16.9818 31.9566 19.4247C31.184 22.8072 28.6124 25.4483 25.3189 26.2417C22.9404 26.8147 20.465 26.8147 18.0865 26.2417M11.4489 19.4247C12.2214 22.8072 14.793 25.4483 18.0865 26.2417M11.4489 19.4247C11.0976 17.8866 10.9675 16.309 11.0586 14.7417C10.9298 14.7687 10.8013 14.7977 10.6731 14.8286C7.85007 15.5086 5.64585 17.7724 4.98367 20.6717C4.50544 22.7656 4.50544 24.9446 4.98367 27.0385C5.64585 29.9378 7.85007 32.2016 10.6731 32.8816C12.7118 33.3728 14.8335 33.3728 16.8723 32.8816C19.6953 32.2016 21.8995 29.9378 22.5617 27.0385C22.5917 26.9068 22.6199 26.7748 22.6462 26.6425C21.1201 26.7361 19.5841 26.6025 18.0865 26.2417" stroke="#666666" stroke-width="1.5"/>
</svg>
