<svg width="35" height="33" viewBox="0 0 35 33" fill="none" xmlns="http://www.w3.org/2000/svg">
<g id="COCO/Bold/Message-5">
<path id="Vector" fill-rule="evenodd" clip-rule="evenodd" d="M12.8475 4.57916C15.9121 3.97361 19.0881 3.97361 22.1527 4.57916L22.7937 4.70584C25.4384 5.22841 27.7372 6.54833 29.3571 8.37597C29.6216 8.67429 29.5327 9.10444 29.1834 9.32252L19.5042 15.3658C18.3009 16.1171 16.6993 16.1171 15.4959 15.3658L5.81677 9.32253C5.46748 9.10445 5.37859 8.67431 5.64301 8.37598C7.26293 6.54834 9.56176 5.22841 12.2064 4.70584L12.8475 4.57916ZM4.84884 11.2548C4.44353 11.0018 3.87853 11.1469 3.72509 11.5664C3.63939 11.8007 3.56272 12.0388 3.49545 12.2804C2.72385 15.0514 2.72385 17.9486 3.49545 20.7196C4.55213 24.5144 7.92639 27.4484 12.2064 28.2942L12.8475 28.4208C15.9121 29.0264 19.0881 29.0264 22.1527 28.4208L22.7937 28.2942C27.0738 27.4485 30.448 24.5144 31.5047 20.7196C32.2763 17.9486 32.2763 15.0514 31.5047 12.2804C31.4374 12.0388 31.3608 11.8007 31.2751 11.5664C31.1216 11.1468 30.5566 11.0018 30.1513 11.2548L20.8403 17.0682C18.8347 18.3204 16.1654 18.3204 14.1598 17.0682L4.84884 11.2548Z" fill="#E87B00"/>
</g>
</svg>
