<svg width="26" height="7" viewBox="0 0 26 7" fill="none" xmlns="http://www.w3.org/2000/svg">
<g id="&#240;&#159;&#166;&#134; icon &#34;more horizontal&#34;">
<path id="Vector" d="M12.5862 5C13.3171 5 13.9095 4.32843 13.9095 3.5C13.9095 2.67157 13.3171 2 12.5862 2C11.8554 2 11.2629 2.67157 11.2629 3.5C11.2629 4.32843 11.8554 5 12.5862 5Z" fill="black" stroke="black" stroke-width="4" stroke-linecap="round" stroke-linejoin="round"/>
<path id="Vector_2" d="M21.8494 5C22.5802 5 23.1727 4.32843 23.1727 3.5C23.1727 2.67157 22.5802 2 21.8494 2C21.1186 2 20.5261 2.67157 20.5261 3.5C20.5261 4.32843 21.1186 5 21.8494 5Z" fill="black" stroke="black" stroke-width="4" stroke-linecap="round" stroke-linejoin="round"/>
<path id="Vector_3" d="M3.32329 5C4.05412 5 4.64657 4.32843 4.64657 3.5C4.64657 2.67157 4.05412 2 3.32329 2C2.59246 2 2 2.67157 2 3.5C2 4.32843 2.59246 5 3.32329 5Z" fill="black" stroke="black" stroke-width="4" stroke-linecap="round" stroke-linejoin="round"/>
</g>
</svg>
